<?xml version="1.0" standalone="no"?>
<!DOCTYPE svg PUBLIC "-//W3C//DTD SVG 20010904//EN"
 "http://www.w3.org/TR/2001/REC-SVG-20010904/DTD/svg10.dtd">
<svg version="1.0" xmlns="http://www.w3.org/2000/svg"
 width="348.000000pt" height="348.000000pt" viewBox="0 0 348.000000 348.000000"
 preserveAspectRatio="xMidYMid meet">
<metadata>
Created by potrace 1.14, written by Peter Selinger 2001-2017
</metadata>
<g transform="translate(0.000000,348.000000) scale(0.100000,-0.100000)"
fill="#000000" stroke="none">
<path d="M1723 3204 c-11 -16 -51 -83 -88 -149 -38 -66 -106 -185 -152 -263
-46 -79 -83 -146 -83 -150 0 -3 -6 -13 -14 -21 -7 -9 -28 -43 -46 -76 -32 -58
-266 -464 -309 -535 -11 -19 -24 -42 -28 -50 -4 -8 -26 -46 -48 -85 -23 -38
-53 -90 -67 -115 -14 -25 -74 -128 -133 -230 -59 -102 -121 -210 -138 -240
-16 -30 -48 -83 -69 -118 -21 -34 -38 -65 -38 -67 0 -3 -11 -22 -23 -43 -13
-20 -76 -128 -140 -239 -64 -111 -125 -217 -136 -235 -11 -18 -26 -44 -34 -58
-27 -49 -60 -106 -113 -197 -30 -50 -54 -94 -54 -97 0 -3 778 -6 1730 -6 952
0 1730 2 1730 4 0 2 -20 39 -45 80 -25 42 -45 79 -45 82 0 3 -8 18 -19 32 -10
15 -29 47 -43 72 -30 54 -123 215 -344 597 -90 155 -164 287 -164 292 0 5 -3
11 -8 13 -4 2 -70 113 -147 247 -77 134 -150 260 -161 280 -12 20 -65 113
-119 206 -54 94 -135 234 -181 313 -46 79 -84 145 -84 148 0 2 -11 21 -23 42
-13 20 -32 51 -43 67 -10 17 -19 32 -19 35 0 3 -10 21 -21 40 -42 68 -231 395
-246 424 l-15 28 -20 -28z"/>
</g>
</svg>
