<?xml version="1.0" encoding="UTF-8"?><svg id="Layer_2" xmlns="http://www.w3.org/2000/svg" width="238.3584" height="43.1724" viewBox="0 0 238.3584 43.1724"><defs><style>.cls-1{fill:#414042;}</style></defs><g id="Layer_1-2"><g><path class="cls-1" d="M10.998,17.0425c.2852,0,.5391,.0132,.7598,.0391s.4229,.0132,.6045-.0391c.2861,0,.5664-.0063,.8389-.0195,.2734-.0127,.5518-.0195,.8389-.0195,.7539,0,1.3779,.1431,1.8721,.4292,.4932,.2861,.8447,.689,1.0527,1.209,.4678,1.0664,.1172,1.8462-1.0527,2.3398-.9111,.3643-1.833,.689-2.7695,.9751-.9355,.2861-1.8721,.5591-2.8076,.8188-.3643,.1304-.6377,.2993-.8193,.5068-.1816,.2085-.2861,.5073-.3115,.897-.0264,1.0664,.0254,1.8916,.1553,2.4766s.3379,.9946,.624,1.2285c.2861,.2344,.6504,.3315,1.0928,.2925,.4414-.0391,.9551-.1426,1.54-.312,.585-.1685,1.2412-.3765,1.9697-.624,.7275-.2466,1.5205-.4482,2.3789-.6045,.2344-.1035,.4932-.1948,.7803-.2729,.9092-.1558,1.6895,.1304,2.3398,.8579,.7021,.7803,.8574,1.5474,.4678,2.3013-.1309,.3643-.3506,.6631-.6631,.897-1.0918,.8325-2.249,1.5864-3.4707,2.2622-1.2227,.6758-2.6006,1.1436-4.1338,1.4038-1.248,.2075-2.457,.1494-3.627-.1753-1.1709-.3257-2.2432-.8516-3.2178-1.5796-.9756-.7275-1.8008-1.6313-2.4766-2.7104-.6768-1.0786-1.1445-2.2817-1.4043-3.6079-.208-.9878-.3115-1.9561-.3115-2.9053,0-.9487,.0645-1.8916,.1943-2.8276,.3906-3.1201,1.1445-6.084,2.2627-8.8921l-.7021-.7017c-1.0146-1.0923-1.248-2.106-.7021-3.042,.2598-.4419,.585-.7666,.9746-.9751,1.6387-.9878,3.4062-1.6577,5.3047-2.0083,1.8975-.3511,4.0166-.1758,6.3564,.5264,.5459,.1821,1.0859,.3896,1.6191,.624,.5322,.2339,1.0195,.5723,1.4619,1.0137,.4941,.4424,.8389,.9165,1.0332,1.4238,.1953,.5068,.2275,.9814,.0977,1.4233-.3643,.8843-1.1699,1.209-2.418,.9751-.2598-.1035-.4424-.1562-.5459-.1562-.4678,0-.9355-.0127-1.4043-.0391-.4678-.0254-.9102-.0127-1.3252,.0391-.2871,.0264-.4941,.1113-.624,.2539-.1309,.1431-.2217,.312-.2734,.5068-.0527,.1948-.085,.4033-.0977,.624-.0127,.2212-.0586,.4229-.1357,.6045-.2607,.728-.4814,1.4692-.6631,2.2231-.1826,.7544-.4033,1.5342-.6631,2.3398Z"/><path class="cls-1" d="M30.1465,22.6196c.5459-1.1177,1.085-2.2358,1.6182-3.354,.5332-1.1177,1.0986-2.2358,1.6963-3.354,.3125-.5981,.6309-1.1704,.9561-1.7163,.3242-.5459,.6689-1.1045,1.0332-1.6768,.1035-.1299,.2012-.2598,.293-.3901,.0908-.1299,.1875-.2598,.292-.3901,.6758-.6494,1.417-.6758,2.2227-.0776,.7539,.6235,.9883,1.3257,.7021,2.106-1.1699,2.7822-2.3203,5.5444-3.4512,8.2871-1.1309,2.7437-2.2949,5.5186-3.4902,8.3267-.2607,.624-.624,1.1963-1.0918,1.7158-.3125,.3647-.6895,.6045-1.1318,.7217s-.8906,.1235-1.3447,.0195c-.4561-.1035-.9111-.3179-1.3652-.6436-.4551-.3247-.8525-.7471-1.1895-1.2676-.5723-.7798-1.001-1.5923-1.2871-2.4375-.2861-.8442-.4941-1.6831-.624-2.5151-.416-2.4185-.5527-4.7388-.4092-6.9619,.1426-2.2227,.5264-4.3872,1.1504-6.4932,.2334-.8057,.585-1.5342,1.0527-2.1841,.3115-.4419,.7412-.6953,1.2871-.7607,.5459-.0645,1.0781,.0459,1.5986,.3315,.5723,.2866,1.0146,.6699,1.3262,1.1509,.3125,.481,.4551,1.0469,.4287,1.6963,0,.5205-.0322,1.04-.0967,1.5601-.0654,.5205-.1113,1.0527-.1367,1.5991-.0781,1.0137-.1367,2.0278-.1758,3.042-.0391,1.0137-.085,2.041-.1367,3.0806,0,.1045,.0059,.2021,.0195,.293,.0127,.0913,.0195,.1626,.0195,.2144,.0518,.0522,.1299,.0781,.2344,.0781Z"/><path class="cls-1" d="M45.0439,24.9595c.0781,.936,.4219,1.6055,1.0332,2.0083,.6104,.4033,1.3125,.6309,2.1064,.6826,.793,.0522,1.5986-.0391,2.418-.2729,.8184-.2339,1.501-.5327,2.0469-.897,.4424-.2856,.8838-.4155,1.3262-.3901,.4424,.0264,.8447,.2085,1.209,.5459,.832,.6768,.9492,1.4824,.3516,2.418-.1309,.1826-.2539,.3452-.3711,.4878-.1172,.1431-.2666,.2798-.4482,.4092-1.2227,.9106-2.542,1.5474-3.959,1.9111-1.417,.3647-2.9834,.4033-4.6992,.1172-1.7158-.312-3.1914-1.0532-4.4268-2.2231-1.2344-1.1699-2.0605-2.5869-2.4756-4.251-.3652-1.4297-.4434-2.8276-.2344-4.1924,.208-1.3652,.6631-2.626,1.3652-3.7832,.7021-1.1562,1.6182-2.1509,2.749-2.9834,1.1309-.8315,2.4375-1.4297,3.9199-1.7939,.7539-.1816,1.5264-.2534,2.3203-.2144,.793,.0391,1.5664,.1821,2.3203,.4287,.7539,.2476,1.4756,.6045,2.165,1.0728,.6885,.4678,1.3057,1.0137,1.8525,1.6377,1.1953,1.4302,1.6768,2.9902,1.4424,4.6802-.1045,.7798-.3447,1.5151-.7217,2.2036-.377,.689-.8574,1.3003-1.4424,1.833-.585,.5332-1.248,.9751-1.9893,1.3257-.7412,.3511-1.541,.5791-2.3984,.6826-.832,.1304-1.6318,.1045-2.3984-.0781-.7676-.1816-1.5283-.4805-2.2812-.897-.1309-.0518-.2607-.123-.3906-.2144-.1299-.0908-.2598-.1753-.3896-.2534Zm3.8994-3.8999c.3125,0,.624-.0713,.9365-.2148,.3115-.1426,.5908-.3247,.8389-.5459,.2461-.2207,.4414-.4741,.585-.7603,.1426-.2861,.2139-.585,.2139-.897,0-.3901-.085-.6694-.2529-.8389-.1699-.1685-.4746-.2788-.917-.3315-.8574-.0776-1.5664,.0586-2.125,.4097-.5596,.3511-.917,.7544-1.0732,1.209-.1553,.4551-.0967,.8911,.1758,1.3066,.2734,.416,.8125,.6372,1.6182,.6631Z"/><path class="cls-1" d="M65.9863,14.5073c.0518-.0518,.1172-.0972,.1943-.1362l.2734-.1367c.6758-.3901,1.4365-.5522,2.2812-.4873s1.6777,.2988,2.4961,.7017c.8193,.4038,1.5801,.9624,2.2812,1.6772,.7021,.7153,1.2354,1.5278,1.5996,2.4375,.208,.624,.3438,1.2354,.4092,1.833,.0645,.5981-.0068,1.1831-.2139,1.7549-.1562,.4683-.4297,.8257-.8193,1.0728-.3906,.2471-.9102,.3447-1.5605,.2925-1.1953-.208-2.0801-.8193-2.6514-1.833-.2344-.3901-.4424-.7998-.624-1.2285-.1826-.4292-.3906-.8906-.624-1.3848-.3906-.4419-.7803-.4741-1.1699-.0972-.3906,.377-.748,.9619-1.0732,1.7549-.3252,.7935-.5977,1.71-.8184,2.7495-.2217,1.04-.3447,2.0151-.3711,2.9248-.0254,.5986-.0322,1.1699-.0195,1.7163,.0137,.5459,.0068,1.0791-.0186,1.5986-.1309,.936-.6113,1.5601-1.4434,1.8721-.3896,.1562-.7998,.2212-1.2285,.1948-.4287-.0254-.8516-.1362-1.2676-.3311-.416-.1953-.8066-.4546-1.1699-.7803-.3643-.3247-.6504-.708-.8584-1.1504-.1553-.3638-.292-.7344-.4092-1.1113s-.1885-.7607-.2148-1.1509c-.5977-4.1338-.2861-8.0469,.9365-11.7388,.2334-.6499,.5322-1.248,.8965-1.7939,.2598-.3901,.5977-.6694,1.0146-.8389,.415-.1685,.8574-.2339,1.3252-.1948,.4688,.0391,.9229,.1821,1.3652,.4292s.8193,.6177,1.1309,1.1113c.0518,.0522,.0977,.0977,.1367,.1367s.1104,.0845,.2148,.1362Z"/><path class="cls-1" d="M88.1582,28.6841c-.1699,.1948-.3457,.3701-.5273,.5264-.3896,.3643-.7793,.7349-1.1699,1.1113-.3896,.3774-.832,.6958-1.3262,.9556-.5459,.2866-1.1182,.4424-1.7158,.4683s-1.1768-.0781-1.7354-.312c-.5596-.2344-1.0918-.5786-1.5986-1.0337-.5068-.4546-.9297-1.02-1.2676-1.6963-.5986-1.0396-.9756-2.0674-1.1309-3.0811-.2871-1.8198-.2803-3.5356,.0195-5.1479,.2979-1.6118,.7598-3.1592,1.3838-4.6411,.2344-.624,.6504-1.1309,1.248-1.521,.3906-.2339,.8193-.3442,1.2871-.3315,.4678,.0132,.9102,.1362,1.3262,.3706,.416,.2339,.793,.5527,1.1309,.9556,.3379,.4033,.5723,.8643,.7021,1.3843,.0781,.3643,.1104,.7349,.0977,1.1113-.0137,.3774-.0195,.748-.0195,1.1118-.0781,.9102-.1504,1.8135-.2148,2.7104s-.1494,1.8916-.2529,2.9834c-.0781,.9106-.0068,1.4175,.2139,1.521,.2207,.104,.5205-.0586,.8975-.4873,.377-.4292,.8057-1.0464,1.2871-1.8525,.4805-.8057,.9609-1.6509,1.4424-2.5352,.4814-.8838,.9229-1.7354,1.3262-2.5547,.4033-.8188,.708-1.4751,.917-1.9692,.1553-.312,.3564-.6045,.6045-.8774,.2461-.2729,.5195-.5073,.8184-.7021s.6113-.3247,.9365-.3901c.3242-.0645,.6436-.0322,.9551,.0977,.5977,.2339,1.0732,.5986,1.4238,1.0918,.3506,.4946,.5518,1.0796,.6045,1.7554,.0518,.104,.0645,.189,.0391,.2534-.0264,.0649-.0391,.1235-.0391,.1753-.0781,1.8467-.208,3.7119-.3896,5.5967-.1826,1.8853-.4297,3.7441-.7412,5.5771-.3125,1.833-.7021,3.6138-1.1699,5.3428-.4688,1.729-1.0273,3.3472-1.6777,4.8555-.208,.4419-.4355,.8384-.6816,1.1895-.248,.3511-.5137,.6826-.7998,.9946-.6768,.6758-1.3916,1.0918-2.1455,1.248-.7539,.1558-1.5146,.1494-2.2812-.0195-.7666-.1694-1.501-.4683-2.2031-.897-.7021-.4292-1.3262-.9038-1.8721-1.4233-.3379-.3384-.624-.7021-.8584-1.0923-.2334-.3901-.4424-.7671-.624-1.1309-.416-.936-.2334-1.6123,.5459-2.0278,.3379-.2085,.7217-.2734,1.1514-.1953,.4287,.0781,.8633,.2856,1.3057,.624,.2344,.1562,.4551,.312,.6631,.4683,.208,.1558,.4551,.2983,.7412,.4287,.4678,.2339,.8389,.3247,1.1113,.2729,.2734-.0522,.5264-.2603,.7607-.624,.2861-.4941,.5391-1.125,.7607-1.8911,.2207-.7676,.4219-1.5669,.6045-2.3989,.1816-.8315,.3438-1.6313,.4873-2.3984,.1426-.7666,.2666-1.3843,.3701-1.8525v-.5459l-.2334-.1167c-.1562,.1821-.3193,.3701-.4873,.5654Z"/><path class="cls-1" d="M118.4795,25.7393c-.1562,.6768-.3066,1.333-.4492,1.9697-.1426,.6372-.292,1.2808-.4482,1.9307-.1299,.5459-.2529,1.0854-.3701,1.6182-.1172,.5332-.2285,1.0728-.332,1.6187-.1299,.2339-.2402,.4741-.3311,.7217-.0918,.2466-.2021,.4736-.332,.6821-.3115,.3638-.7012,.6045-1.1699,.7217-.4678,.1172-1.001,.0713-1.5986-.1367-1.1963-.4424-2.0156-1.2349-2.457-2.3789-.1045-.1816-.1689-.3901-.1953-.624-.0254-.2339-.0645-.4546-.1162-.6631-.417-3.4834-.6309-6.8833-.6436-10.1982-.0137-3.3149,.3174-6.5718,.9941-9.7695,.208-.8838,.4541-1.7612,.7412-2.6323,.2852-.8711,.5713-1.7222,.8574-2.5547,.1299-.3638,.3184-.7021,.5654-1.0142s.5137-.5977,.7998-.8579c.4414-.3638,.9561-.5718,1.541-.624,.585-.0518,1.1699,.0332,1.7549,.2534,.585,.2212,1.124,.5527,1.6182,.9946,.4932,.4424,.8711,.9751,1.1309,1.5991,.208,.4941,.3516,.9946,.4287,1.5015,.0781,.5068,.1426,1.0078,.1953,1.5015,.0518,.416,.0645,.8257,.0391,1.2285-.0264,.4033-.0654,.7993-.1172,1.1895,0,.3643-.0264,.7412-.0781,1.1309-.0518,.3901-.0518,.8062,0,1.248,.1299-.1299,.2734-.2402,.4297-.3315,.1553-.0908,.2979-.2012,.4287-.3315,1.0918-.936,2.1641-1.8911,3.2178-2.8662,1.0527-.9751,2.125-1.9561,3.2168-2.9448,.2598-.1812,.5137-.3569,.7607-.5264,.2471-.1689,.5264-.3179,.8389-.4482,.3896-.208,.8379-.2861,1.3457-.2344,.5068,.0527,1.0459,.2603,1.6182,.624,.4932,.3384,.8711,.7544,1.1309,1.248,.2598,.4941,.3379,.9751,.2344,1.4434-.0781,.6499-.2734,1.2612-.585,1.833-.3906,.52-.7803,1.04-1.1699,1.5596-.3906,.5205-.8066,1.0142-1.248,1.4824-1.1699,1.1182-2.3535,2.21-3.5498,3.2759-1.1953,1.0664-2.418,2.1323-3.666,3.1978-.1299,.1562-.2666,.2925-.4092,.4097s-.3184,.2798-.5264,.4873c.2861,.1304,.5322,.2344,.7412,.312,.208,.0781,.3896,.1562,.5459,.2344,1.0918,.4941,2.1836,.9814,3.2764,1.4624,1.0918,.4814,2.1836,.9814,3.2754,1.5015,.3643,.1558,.708,.3379,1.0332,.5459,.3252,.2085,.6436,.416,.9561,.624,.8574,.7021,1.209,1.4429,1.0527,2.2231-.0781,.3643-.2598,.6436-.5459,.8384s-.6504,.3057-1.0918,.3315c-.209-.0259-.4092-.0518-.6045-.0781-.1953-.0254-.4092-.0645-.6436-.1172-1.8203-.3638-3.6533-.8188-5.499-1.3647-1.8467-.5459-3.666-1.3125-5.46-2.3008-.1309-.0781-.2803-.1562-.4482-.2344-.1699-.0776-.3975-.1816-.6826-.312Z"/><path class="cls-1" d="M141.957,19.3433c0,1.7939-.0781,3.5298-.2344,5.2065-.1562,1.6772-.3506,3.3608-.585,5.0508,0,.3896-.0918,.7935-.2734,1.209-.1299,.3643-.3574,.6108-.6816,.7407-.3262,.1304-.709,.1694-1.1514,.1172-.4678-.0518-.8643-.208-1.1895-.4683-.3252-.2593-.5908-.585-.7988-.9746-.209-.416-.3125-.7666-.3125-1.0532-.2598-1.7158-.4229-3.4058-.4873-5.0698-.0654-1.6636,.0713-3.2891,.4092-4.875,.2344-1.0659,.624-1.8267,1.1699-2.2817,.5469-.4546,1.1123-.6494,1.6973-.585,.585,.0654,1.1172,.3643,1.5986,.897,.4805,.5332,.7607,1.2285,.8389,2.0864Zm-.8584-5.1479c-.5723,.2866-1.2227,.3579-1.9502,.2148s-1.3125-.4741-1.7549-.9946c-.4941-.52-.6895-1.0728-.585-1.6577,.1035-.585,.4678-1.0332,1.0918-1.3452,.5723-.2861,1.2158-.3574,1.9307-.2148,.7148,.1436,1.3066,.4751,1.7744,.9946,.4941,.5205,.6885,1.0728,.585,1.6577s-.4678,1.0332-1.0918,1.3452Z"/><path class="cls-1" d="M156.2305,28.7812c-.2861,.2866-.54,.5332-.7607,.7412-.2207,.2085-.4482,.416-.6826,.624-.6758,.5459-1.4229,.8843-2.2422,1.0142-.8184,.1304-1.6377,.0776-2.457-.1562-.8184-.2339-1.6123-.6494-2.3789-1.248-.7676-.5977-1.4238-1.3647-1.9697-2.3008-1.1182-1.8462-1.5732-3.6787-1.3643-5.499,.2588-3.1719,1.7549-5.6289,4.4844-7.3711,1.4561-.9097,3.2236-1.248,5.3047-1.0142,.1807,.0527,.3506,.0781,.5068,.0781,.1553,0,.3242,.0132,.5068,.0391,.1562-.8838,.2988-1.7485,.4287-2.5938,.1299-.8442,.2598-1.6831,.3906-2.5151,.1553-.9102,.376-1.7939,.6621-2.6523,.2861-.8579,.6758-1.6377,1.1699-2.3398,.208-.3374,.4492-.6562,.7217-.9556,.2734-.2983,.5654-.5654,.8779-.7993,.5195-.3901,1.1309-.5654,1.833-.5264,.7021,.0386,1.3516,.2666,1.9502,.6821,.624,.3647,1.1172,.8521,1.4814,1.4624,.3643,.6113,.4814,1.2549,.3516,1.9307-.0781,.7544-.1895,1.5083-.332,2.2622-.1426,.7544-.3184,1.5083-.5264,2.2617-.7539,2.7563-1.2617,5.5967-1.5205,8.5215-.2607,2.9253-.3652,5.9087-.3125,8.9507,.0254,.5723,.0254,1.1309,0,1.6768-.0264,.5464-.0654,1.1055-.1172,1.6772,0,.1304-.0068,.2603-.0195,.3901-.0127,.1304-.0322,.2603-.0586,.3896-.2861,1.0405-.9883,1.521-2.1055,1.4434-.5723-.0518-1.1113-.2402-1.6182-.5659-.5078-.3247-.9043-.7729-1.1904-1.3452-.208-.312-.377-.6494-.5068-1.0142-.1299-.3638-.2988-.7798-.5068-1.248Zm-1.4043-9.9058c-.9355-.1035-1.7871,.0586-2.5537,.4873-.7676,.4292-1.3525,1.0142-1.7559,1.7549-.4033,.7412-.6045,1.5796-.6045,2.5156s.2861,1.8594,.8584,2.769c.4414,.3901,.9033,.4097,1.3848,.0586,.4805-.3511,.9287-.9165,1.3457-1.6963,.415-.7803,.7471-1.7026,.9941-2.769,.2471-1.0659,.3574-2.106,.3311-3.1201Z"/><path class="cls-1" d="M178.9277,16.2622c-.9883-.8052-1.6123-1.521-1.8721-2.145-.2598-.6235-.2471-1.3516,.0391-2.1836,.3125-.832,.7275-1.5923,1.248-2.2817,.5195-.6885,1.0664-1.3452,1.6387-1.9692,.4678-.5464,.8828-1.144,1.2471-1.7944,.2344-.312,.4551-.6431,.6631-.9941s.4424-.6826,.7021-.9946c.6494-.7539,1.6123-1.0142,2.8867-.7798,.2588,.0776,.5127,.0972,.7598,.0581s.4873-.084,.7217-.1362c.832-.2339,1.6963-.396,2.5938-.4878,.8965-.0908,1.8389-.0322,2.8271,.1758,1.2217,.2339,2.3594,.6567,3.4131,1.2676,1.0527,.6108,1.9688,1.3452,2.749,2.2031,.7803,.8584,1.3975,1.8008,1.8525,2.8276,.4551,1.0273,.6953,2.0864,.7217,3.1787,.0254,1.0918-.124,2.0864-.4482,2.9834-.3262,.897-.748,1.749-1.2676,2.5547-.7803,1.0918-1.6582,2.0737-2.6328,2.9443-.9746,.8716-2.0215,1.6836-3.1396,2.4375-.2861,.2085-.5723,.4229-.8574,.6436-.2871,.2212-.5986,.4355-.9365,.6436,.3643,.4424,.7275,.8711,1.0918,1.2866,.3643,.4165,.7539,.8066,1.1699,1.1704,.416,.3643,.8516,.6958,1.3066,.9941,.4551,.2993,.9688,.54,1.541,.7217,.624,.2085,1.1309,.5264,1.5205,.9556,.3906,.4287,.6494,.9038,.7803,1.4233,.2861,1.0923-.1436,1.8076-1.2871,2.145-.6768,.1816-1.3652,.1948-2.0674,.0391-.7012-.1558-1.417-.3765-2.1445-.6631-1.1699-.4937-2.2754-1.0918-3.3154-1.7939s-2.0537-1.4688-3.042-2.3008c-.4424-.3638-.793-.6372-1.0527-.8193-.2598-.1816-.4678-.2593-.624-.2339-.1562,.0264-.2793,.1431-.3701,.3511-.0918,.2085-.1758,.5068-.2539,.897-.1045,.5205-.2148,1.0532-.3311,1.5991-.1172,.5459-.2412,1.0791-.3711,1.5986-.0518,.2344-.1172,.4619-.1943,.6826-.0781,.2212-.1826,.4097-.3125,.5654-.2598,.2861-.585,.4487-.9746,.4878-.3906,.0391-.7803-.0137-1.1699-.1562-.3906-.1431-.7676-.3701-1.1309-.6821-.3652-.312-.6377-.689-.8193-1.1313-.1309-.2856-.2471-.6045-.3516-.9556-.1035-.3506-.1553-.6821-.1553-.9941-.0527-2.0283-.1113-4.043-.1758-6.0454-.0654-2.0015-.124-4.0166-.1758-6.0449,.0254-.4155,.0254-.8315,0-1.248Zm8.1514,2.8862c.1035,.0781,.1953,.1558,.2725,.2339,1.1709-1.1699,2.3145-2.3398,3.4326-3.5098,1.1172-1.1699,2.0928-2.457,2.9248-3.8613,.1562-.2856,.2988-.5977,.4287-.936,.1299-.3374,.2207-.6885,.2734-1.0527,.1299-1.0659-.377-1.6382-1.5215-1.7158-.5977-.0259-1.1768,0-1.7354,.0776-.5596,.0781-1.1377,.1694-1.7354,.2729-.5205,.1045-.8066,.4814-.8584,1.1313-.2334,1.7422-.5068,3.5098-.8184,5.3037-.0781,.7021-.1758,1.3848-.293,2.0479-.1172,.6626-.2402,1.3325-.3701,2.0083Z"/><path class="cls-1" d="M203.5762,25.8174c-.1045-.4155-.1758-.9097-.2148-1.4819-.0391-.5718-.0518-1.1636-.0391-1.7744s.0645-1.2153,.1562-1.8135c.0908-.5981,.2275-1.1177,.4092-1.5601,.5205-1.3516,1.2676-2.4829,2.2432-3.3931,.9746-.9097,2.1377-1.6245,3.4902-2.145,.9355-.3901,1.9111-.5132,2.9248-.3706,1.0137,.1431,1.9502,.501,2.8076,1.0728,.8594,.5723,1.5996,1.3257,2.2246,2.2617,.623,.936,1.0391,1.9766,1.248,3.1201,.4414,2.4702,.3691,4.563-.2148,6.2788-.5859,1.7163-1.7754,3.1982-3.5693,4.4463-1.1182,.7798-2.2812,1.2417-3.4902,1.3843-1.209,.1436-2.3467,0-3.4131-.4287-1.0664-.4292-2.0078-1.1177-2.8271-2.0674-.8193-.9487-1.3975-2.1255-1.7354-3.5293Zm8.8135,1.1699c.5977-.4155,1.1377-1.0332,1.6191-1.8525,.4805-.8188,.8252-1.6572,1.0332-2.5151,.2344-1.144,.1621-2.0605-.2148-2.7495s-.877-1.1177-1.501-1.2871c-.624-.1689-1.2744-.0518-1.9502,.3511-.6768,.4033-1.1836,1.1245-1.5205,2.1646-.2607,.7544-.4043,1.5664-.4297,2.4375-.0264,.8711,.0713,1.6377,.293,2.3008,.2207,.6631,.5518,1.1309,.9941,1.4038s1.001,.189,1.6768-.2534Z"/><path class="cls-1" d="M225.2988,21.3716c-.4688-.8057-.9111-1.5923-1.3262-2.3599-.416-.7666-.8457-1.5142-1.2871-2.2422-.1562-.2861-.293-.5718-.4092-.8579-.1172-.2861-.2285-.5718-.332-.8584-.1816-.4678-.2012-.8901-.0586-1.2671s.4102-.6436,.7998-.7998c.9355-.3901,1.8457-.2593,2.7295,.3901,.3125,.2861,.624,.5786,.9365,.8774,.3115,.2993,.6104,.6177,.8965,.9556,.2861,.3384,.5469,.6826,.7803,1.0332,.2344,.3511,.4941,.7217,.7803,1.1118,.6494-.52,1.2803-1.0142,1.8916-1.4819,.6104-.4683,1.2148-.9229,1.8135-1.3652,.2852-.2339,.6045-.4678,.9551-.7021,.3516-.2339,.6953-.4546,1.0342-.6626,.5459-.2861,1.0918-.3965,1.6377-.3315s1.0264,.2798,1.4434,.6436c.4414,.3896,.6953,.8188,.7598,1.2866,.0645,.4683-.084,.9233-.4482,1.3652-.7021,.9102-1.4365,1.7812-2.2031,2.6128-.7676,.8325-1.541,1.6646-2.3213,2.4961-.1816,.2339-.3838,.4619-.6045,.6826-.2207,.2212-.4355,.4482-.6436,.6826,.5205,.8843,1.0273,1.7295,1.5215,2.5347,.4932,.8062,1.001,1.6255,1.5205,2.457,.208,.2866,.3906,.5791,.5469,.8774,.1553,.2993,.3115,.5918,.4678,.8779,.3115,.52,.4287,.9941,.3506,1.4233-.0781,.4287-.3379,.7476-.7793,.9556-.4424,.2085-.9111,.2339-1.4043,.0776-.4941-.1558-.9756-.4678-1.4434-.9355-.3115-.3643-.6113-.7085-.8965-1.0337-.2871-.3247-.5723-.6689-.8584-1.0337-.3643-.4155-.7217-.8384-1.0723-1.2676-.3516-.4287-.7354-.8901-1.1504-1.3843-.209,.2085-.3906,.3965-.5459,.5654-.1562,.1694-.2998,.3315-.4297,.4878-.3643,.4424-.6885,.8906-.9746,1.3452-.2861,.4551-.6113,.9038-.9746,1.3457-.209,.2085-.4043,.416-.5859,.624-.1816,.2085-.4033,.377-.6621,.5068-.7021,.4683-1.5479,.4683-2.5352,0-.4424-.2339-.7871-.5522-1.0342-.9556-.2471-.4028-.3447-.8252-.292-1.2676,.0518-.2856,.1299-.5654,.2344-.8384,.1035-.2729,.2197-.5391,.3506-.7993,.4932-.7803,.9941-1.5664,1.501-2.3599,.5078-.7925,1.0205-1.5659,1.541-2.3203,.1035-.1816,.2275-.3569,.3701-.5264,.1426-.1689,.2793-.3574,.4102-.5654Z"/></g></g></svg>